# xmcd
#
# Track frame offsets:
#	150
#	19828
#	37699
#	58624
#	77776
#	95352
#	112403
#	133019
#	155033
#	169523
#	188395
#	207124
#	226042
#	241741
#
# Disc length: 3472 seconds
#
# Revision: 1
# Processed by: cddbd v1.5.2PL0 Copyright (c) Steve Scherf et al.
# Submitted via: audiograbber 1.83.01
#
DISCID=a60d8e0e
DTITLE=CHICO CÉSAR - Francisco Forró y Frevo
DYEAR=2008
DGENRE=MPB
TTITLE0=Girassol
TTITLE1=Feriado
TTITLE2=A marcha da calcinha
TTITLE3=Comer na mão
TTITLE4=Humanequim
TTITLE5=Dentro
TTITLE6=Abaeté, Abaiacu e Namorado
TTITLE7=Deus me proteja
TTITLE8=Armando
TTITLE9=Zabé
TTITLE10=Solto na buraqueira
TTITLE11=Ociosa
TTITLE12=Eletrônica
TTITLE13=Pelado
EXTD=
EXTT0=
EXTT1=
EXTT2=
EXTT3=
EXTT4=
EXTT5=
EXTT6=
EXTT7=
EXTT8=
EXTT9=
EXTT10=
EXTT11=
EXTT12=
EXTT13=
PLAYORDER=
